<?xml version="1.0" encoding="utf-8"?>
<!-- Generator: Adobe Illustrator 25.3.1, SVG Export Plug-In . SVG Version: 6.00 Build 0)  -->
<svg version="1.1" id="Layer_1" xmlns="http://www.w3.org/2000/svg" xmlns:xlink="http://www.w3.org/1999/xlink" x="0px" y="0px"
	 viewBox="0 0 276.7 117" style="enable-background:new 0 0 276.7 117;" xml:space="preserve">
<style type="text/css">
	.st0{fill:#FFFFFF;}
</style>
<path class="st0" d="M167.8,840c31.3,0,62.5,0,93.8,0c1.7,0,3.4,0.2,5,0.5c2,0.4,3,1.9,3,3.9c0,1.9-1,3.4-3,3.9
	c-1.3,0.3-2.7,0.5-4.1,0.5c-63.1,0-126.3,0-189.4,0c-1.5,0-3.2,0-4.3-0.7c-1.2-0.8-2.6-2.4-2.6-3.7c0-1.3,1.4-3.1,2.6-3.7
	c1.5-0.8,3.5-0.7,5.2-0.7C105.3,840,136.5,840,167.8,840z"/>
<path class="st0" d="M250.1,794.6c-10,0-18.9-8.8-18.9-18.8c0-10.1,8.8-18.9,18.9-18.9c10.5,0,19.4,8.7,19.4,19
	C269.4,785.9,260.5,794.5,250.1,794.6z M250.2,759.2c-7.2,0.1-13.2,4.1-15.6,10.6c-2.4,6.3-0.7,13.4,4.3,18c0.7,0.6,1.6,1,2.4,1.6
	c0.4-0.9,0.8-1.7,1.1-2.6c0.7-2.9,0.6-6.5,2.3-8.7c2-2.7,2.6-5.6,3.8-8.4c0.3-0.7,0.5-1.5,0.9-2.2c0.6-1.1,1.4-1.2,1.9,0.1
	c2,5,4,10,5.9,15c0.5,1.4,0.7,2.8,1,4.3c0.8,3.1,1.1,3.2,3.6,1c5-4.5,6.6-12,4-18.4C263.3,763.2,257.2,759.2,250.2,759.2z
	 M250.4,778.7c-5,0.2-4.2-1-5.4,4.4c-0.5,2-0.8,4-1.3,6c-0.4,1.4,0.1,1.9,1.4,2.4c3.2,1.1,6.4,1.1,9.6,0.3c1.8-0.4,2.8-1.1,2.1-3.3
	c-0.6-1.7-0.8-3.6-1.2-5.4C254.4,778,255.3,778.7,250.4,778.7z"/>
<g>
	<path class="st0" d="M81.6,66.6c-0.4,0.4-0.7,0.8-1.1,1.2c-7,8.1-14,16.2-21,24.2c-2.3,2.6-4.8,5.1-8.1,6.5
		c-2.8,1.2-5.7,1.1-8.6,0.5c-1-0.2-1.8-1.3-2.6-2c-1.9-1.8-2.6-3.9-2.6-6.6c0.1-8,1.7-15.8,3.4-23.5c0.1-0.6,0.3-1.2,0.4-1.8
		c0.1-0.4,0-0.8,0-1.3c-0.4,0.2-0.8,0.4-1.1,0.7C35,70.1,29.6,75.9,24,81.4c-4,4-8.2,7.8-12.4,11.5c-1.8,1.6-4.1,2.7-6.1,4.1
		c-0.9,0.6-1.7,0.4-2.4-0.4c-0.9-1.1-1.8-2.1-2.7-3.2c-0.7-0.8-0.4-1.4,0.3-1.7C7,89.1,11.3,84.1,16,79.6c10.3-9.7,20-20,29.4-30.7
		c1.6-1.8,2.7-3.7,3.5-5.9c2.5-7.1,6.4-13.6,10.5-19.9c0.7-1,1.5-1.9,2.4-2.8c1.1-1,1.9-0.9,2.9,0.1c0.2,0.2,0.4,0.4,0.6,0.7
		c2.9,3.2,2.9,4.3,1.2,8.3c-2.9,6.7-6.8,12.7-11.4,18.3c-1.9,2.3-3.3,4.9-4.3,7.8c-3.7,10.3-6.2,20.9-7.6,31.7
		c-0.2,1.7-0.3,3.5-0.4,5.2c-0.1,0.9,0.4,1.3,1.3,1.3c2.5,0,4.7-1,6.5-2.6c2.5-2.3,5-4.7,7.3-7.3c10.6-12,21.1-24.1,30.6-37
		c5.9-8,11.1-16.4,15.5-25.4c0.5-1,1-1.9,1.6-2.8c0.8-1.1,1.5-1.1,2.4-0.2c0.9,0.9,1.7,1.8,2.4,2.8c1.2,1.6,1.1,3.8-0.3,6.1
		c-2.4,3.9-5.1,7.7-7.3,11.8c-4.3,8-8.6,16-12.4,24.2c-2.6,5.6-4.7,11.4-6.6,17.3c-1.2,3.7-1.5,7.8-2.2,11.7c-0.2,1,0.3,1.6,1.1,2.3
		c1.4,1.1,2.5,2.5,3.6,3.9c0.3,0.3,0.1,1,0.2,1.4c-0.5,0-1,0.1-1.4,0c-0.3,0-0.7-0.3-1-0.3c-3.5,0-5.1-2.7-6.8-5.1
		c-0.5-0.7-0.6-1.7-0.7-2.6c-0.3-5.7,0.8-11.3,2.6-16.7c0.8-2.4,1.6-4.8,2.5-7.2c0.1-0.4,0.2-0.7,0.2-1.1
		C81.8,66.7,81.7,66.7,81.6,66.6z"/>
	<path class="st0" d="M248.6,84.3c-0.1-10.8,1.6-21.3,3.7-31.8c0.7-3.3,1.3-6.7,2-10c0.1-0.4,0-0.8-0.1-1.2c-0.3,0.2-0.7,0.4-1,0.6
		c-5,5.3-9.8,10.7-14.9,15.8c-9.2,9.3-18.1,18.9-26.7,28.7c-2.1,2.4-3.6,5.2-5.6,7.7c-2.5,3.2-5,6.4-7.7,9.4c-2.2,2.4-6.1,2.8-8.8,1
		c-0.4-0.2-0.7-1.2-0.5-1.7c0.3-0.8,0.9-1.6,1.5-2.3c2.4-2.7,4.7-5.6,7.3-8.1c4.2-4,7-8.8,9.3-14c4.4-10.4,8.1-21.1,11-32
		c1.5-5.8,3-11.6,4.3-17.4c0.6-2.5,0.7-5.1,0.8-7.7c0.1-2.1,0.8-4,2-5.8c0.5-0.7,1.1-1,1.9-0.9c1.2,0.3,2.4,0.4,3.6,0.7
		c1.5,0.4,1.8,1.3,0.9,2.5c-1,1.3-1.5,2.8-1.5,4.5c-0.1,7.4-2.3,14.5-4.3,21.5c-2.3,8-4.9,16-7.4,23.9c-0.1,0.2-0.2,0.5-0.2,0.7
		c0,0.4,0,0.7,0,1.1c0.3-0.2,0.6-0.3,0.8-0.6c3.1-3.2,6.2-6.3,9.2-9.5c8.5-9.1,16.9-18.2,25.3-27.3c1.7-1.8,3.3-3.8,4.6-6
		c1.1-1.9,1.9-4,2.7-6c2-4.8,3.7-9.6,5.8-14.3c1.9-4.2,4.3-4.9,8.5-3c1.1,0.5,1.5,1.4,1.6,2.6c0.1,3.1-1,5.9-2.5,8.5
		c-1.9,3.2-3.9,6.3-6.1,9.3c-1.8,2.4-2.9,5-3.8,7.9c-4,12.6-6.4,25.6-8.3,38.7c-1.4,10.1-1.8,20.4-0.8,30.6c0.1,1.2-0.3,1.5-1.4,1.4
		c-1.2-0.2-2.4-0.3-3.4-0.6c-0.5-0.2-0.9-0.9-1-1.5c-0.4-5.2-0.8-10.4-1.2-15.6C248.4,84.4,248.5,84.4,248.6,84.3z"/>
	<path class="st0" d="M193.2,42c0.4,0,0.7,0,1.1,0c3.8-0.4,6.1,2,7.5,5c1.4,2.8,0.7,5.7-1.1,8.3c-3.1,4.3-7.2,7.5-11.1,10.8
		c-12.9,10.7-26.2,20.8-40.3,30c-7.2,4.7-14.4,9.3-21.7,13.9c-3.5,2.2-7,4.2-10.5,6.2c-2.3,1.4-2.9,1.2-4.6-0.9
		c-1.9-2.4-1.8-2.3,0.8-3.9c9.1-5.8,18.1-11.6,27.1-17.4c16.8-11,32.9-22.9,48.2-36c2.6-2.2,4.8-4.8,7.2-7.3c0.4-0.4,0.7-1,1-1.5
		c0.6-1.1,0.4-1.5-0.8-1.4c-1.7,0.1-3.5,0.2-5.1,0.6c-7.2,1.9-14.4,3.8-21.6,5.8c-3.9,1.1-7.7,2.6-11.6,3.4c-3.7,0.7-7.6,0.7-11.4,1
		c-1.3,0.1-2.4-0.5-3.2-1.5c-0.6-0.7-1.1-1.4-1.7-2c-1.6-1.6-1.6-3.4-0.4-5c1.5-2.1,3.2-4.2,5-6c5.8-5.7,11.7-11.2,17.6-16.8
		c5.2-5,11.4-8.9,17.1-13.2c0.8-0.6,1.5-0.7,2.3,0.2c0.8,1,1.7,1.8,2.4,2.8c0.9,1.1,0.7,1.9-0.5,2.7c-1.2,0.9-2.5,1.8-3.8,2.7
		c-10,6.6-18.6,14.8-27.1,23.3c-1.9,1.9-3.9,3.8-5.8,5.8c-0.3,0.3-0.5,0.7-0.7,1.1c0.5,0.1,1,0.3,1.4,0.2c3.3-0.7,6.7-1.3,10-2.2
		c10.1-2.8,20-6.5,30.4-8.2C190.7,42.1,192,42,193.2,42C193.2,41.9,193.2,42,193.2,42z"/>
	<path class="st0" d="M66.6,9.6c-0.2,0-0.4,0-0.6,0c-3.8,0.7-6.3-1.3-8.1-4.4c-0.7-1.2-0.8-2.3,0.1-3.4c1.9-2.3,6.1-2.4,8.1-0.1
		c0.6,0.6,1.4,1,2,1.6c1.4,1.4,2.7,2.9,3.9,4.5c0.5,0.8,0,1.6-1.1,1.7C69.4,9.5,68,9.5,66.6,9.6C66.6,9.6,66.6,9.6,66.6,9.6z"/>
</g>
<path class="st0" d="M94.5,792.8c-5.6,0-11.1,0-16.7,0c-4.5,0-6.3-1.8-6.3-6.3c0-6.1,0-12.1,0-18.2c0-4.3,1.7-6.1,6-6.3
	c1.5-0.1,3,0.2,4.5-0.1c1.3-0.3,2.9-0.8,3.8-1.7c1.8-1.9,3.7-2.8,6.3-2.6c1.5,0.1,3,0.1,4.5,0c2.7-0.2,4.7,0.6,6.6,2.7
	c0.9,0.9,2.5,1.4,3.8,1.6c1.7,0.3,3.6,0,5.3,0.1c3.5,0.3,5.2,2,5.3,5.5c0.1,6.6,0.1,13.1,0,19.7c0,3.8-2,5.5-6.1,5.5
	C105.8,792.9,100.1,792.8,94.5,792.8z M94.4,790.7c5.2,0,10.3,0,15.5,0c4.7,0,5.6-0.8,5.6-5.4c0-4.2,0-8.4,0-12.6
	c0-8.5,0-8.6-8.7-8.5c-2.3,0-4.1-0.5-5.4-2.3c-1.1-1.6-2.7-2.2-4.6-2c-1.5,0.1-3,0.1-4.5,0c-2-0.1-3.7,0.4-4.9,2.1
	c-1.3,1.8-3,2.4-5.1,2.2c-1.3-0.1-2.6,0-3.9,0c-3.8,0.1-4.8,1.1-4.8,4.7c0,5.7,0,11.4,0,17c0,3.8,1.1,4.8,5,4.8
	C83.9,790.8,89.2,790.7,94.4,790.7z"/>
<path class="st0" d="M417.2,768c0,6.5,0.1,12.9,0,19.4c0,2.9-1.8,4.8-4.8,4.9c-7.6,0.1-15.3,0.1-22.9,0c-3.3-0.1-5.2-1.9-5.2-5.2
	c-0.1-7.3-0.1-14.7,0-22c0.1-3.2,1.8-5.2,4.9-5.2c6.6-0.1,13.2,0,19.8,0c0.1,0.3,0.2,0.5,0.3,0.8c-1.1,0.4-2.3,1.2-3.4,1.2
	c-5,0.1-9.9,0-14.9,0.1c-3.4,0-4.5,1-4.5,4.3c0,6.6,0,13.1,0,19.7c0,3.3,1.1,4.4,4.5,4.4c6.6,0,13.3,0,19.9,0c3.3,0,4.3-1,4.3-4.2
	c0.1-4.9-0.1-9.8,0.1-14.7c0-1.2,0.7-2.4,1.1-3.5C416.6,767.8,416.9,767.9,417.2,768z"/>
<g>
	<path class="st0" d="M90.5,295.6c0.3-3.6,0.6-7.2,0.9-10.8c0-0.4-0.1-0.8-0.1-1.1c-0.3,0.3-0.6,0.5-0.8,0.8
		c-4.5,5.9-9.1,11.8-13.6,17.7c-1.7,2.2-3.9,3.5-6.7,4c-0.4,0.1-1.1,0.2-1.3,0c-1.4-1.2-2.8-2.5-4.1-3.9c-0.1-0.1,0.1-0.9,0.3-1.1
		c0.3-0.3,0.8-0.4,1.3-0.5c2.2-0.3,4-1.3,5.3-3.1c4.4-5.7,8.9-11.3,13.2-17c2.8-3.8,5.3-7.7,7.7-11.7c1.5-2.5,2.7-5.3,3.9-8
		c1-2.1,1.8-4.3,3-6.3c0.9-1.5,1.8-2.3,3.8-0.5c3.4,3.3,3.7,3.2,1.1,7.5c-4.2,6.9-6.2,14.4-7,22.2c-0.6,6.1-0.9,12.2-1.3,18.4
		c0,0.5,0.2,1,0.4,1.5c0.5-0.2,1.2-0.3,1.6-0.7c0.5-0.4,0.9-1,1.3-1.5c7.1-9.6,13.8-19.6,19.7-30c3.7-6.6,7.6-13.1,11.3-19.7
		c1.1-2,1.5-2.1,3.2-0.6c0.1,0.1,0.2,0.1,0.2,0.2c3.1,2.8,3.1,2.8,1.3,6.6c-5.4,11.4-8.1,23.4-8.2,36.1c0,2,0.1,2.1,2.1,1.8
		c2.5-0.5,4.7-1.6,6.7-3.3c5.1-4.3,10.2-8.6,15.2-12.9c0.8-0.7,0.8-1.1-0.1-1.8c-0.9-0.7-1.7-1.5-2.5-2.2c-1.8-1.4-1.9-3.2-1.1-5.2
		c0.7-1.7,1.4-3.5,2.5-5c3.3-4.8,6.7-9.6,10.1-14.4c2-2.7,5-4.1,7.9-5.4c0.3-0.2,0.9-0.2,1.1,0c1.3,1,2.5,2.1,3.6,3.3
		c0.6,0.6,0.7,1.7-0.4,2c-6.3,2.2-9.4,7.7-13,12.7c-1.9,2.6-3.5,5.3-5.2,8c-0.2,0.4-0.3,0.9-0.4,1.4c0.5,0,1,0,1.5-0.1
		c4.5-1,7.8-4,11.3-6.9c6.6-5.5,13.2-11.1,20-16.3c3.8-2.9,8.1-5,12.1-7.5c1-0.6,1.8-0.5,2.5,0.4c0.7,0.8,1.5,1.5,2.2,2.3
		c0.5,0.7,0.3,1.3-0.5,1.7c-6.1,3.4-11.8,7.4-17.1,11.9c-2.5,2.1-4.9,4.2-7.3,6.3c-0.3,0.3-0.5,0.7-0.7,1.1c0.4,0.1,0.8,0.2,1.1,0.2
		c0.4,0,0.7,0,1.1,0c3.4-0.7,5.7,1.3,7.6,3.7c0.8,1,1.1,2.5,1.2,3.9c0.4,5.7-1.5,10.6-5.5,14.6c-3.6,3.7-7.2,7.3-11,10.8
		c-3.8,3.6-7.8,7.1-11.7,10.7c-1.1,1-2.2,1.8-3.4,2.6c-2,1.3-3.1,1.1-4.7-0.7c-0.1-0.2-0.2-0.4-0.3-0.5c-1.4-1.7-1.3-1.6,0.4-3.1
		c3.8-3.4,7.5-6.9,11.2-10.3c4.3-4.1,8.7-8.1,12.9-12.3c1.6-1.6,3-3.5,4.4-5.4c1.6-2.2,2-4.8,2.3-7.4c0.1-1-0.4-1.3-1.3-1.2
		c-1.8,0.2-3.6,0.2-5.3,0.7c-3.1,0.8-6.4,1.6-9.3,3.1c-2.4,1.2-4.5,3.2-6.5,5c-6.2,5.3-12.3,10.8-18.6,16.1c-2.9,2.5-6.1,4.6-10,4.9
		c-1.2,0.1-2.4,0.3-3.5,0.1c-1.1-0.2-2.2-0.7-3.2-1.3c-0.6-0.4-1.1-1.1-1.7-1.5c-1.6-1.3-2.1-2.9-2-4.9c0.2-3.8,0.3-7.5,0.5-11.3
		c0-0.4,0.1-0.8,0.1-1.2c0-0.3-0.1-0.6-0.2-0.9c-0.2,0.2-0.6,0.4-0.7,0.6c-1.8,2.9-3.4,5.9-5.3,8.7c-4,5.8-8.1,11.5-12.1,17.3
		c-1.9,2.7-7,3.7-9.6,0.7c-0.6-0.7-1.4-1.4-2.1-2.1c-1-1-1.5-2.2-1.5-3.6c0-2.1,0-4.2,0-6.4C90.7,295.6,90.6,295.6,90.5,295.6z"/>
	<path class="st0" d="M99.2,245.6c0-0.3,0-0.8,0-1.2c0.1-2,1.2-2.8,2.9-2c1.6,0.8,3.2,1.8,4.7,2.8c0.4,0.3,0.5,1,0.8,1.6
		c-0.5,0.2-1,0.5-1.5,0.4c-0.7-0.1-0.9,0.2-1,0.8c0,0.4,0,0.7-0.1,1.1c-0.2,2.3-0.9,2.7-2.8,1.6c-1-0.6-2-1.3-2.9-2
		c-0.3-0.2-0.4-0.8-0.5-1.2C99,246.9,99.1,246.3,99.2,245.6z"/>
</g>
<path class="st0" d="M-76.5,772.3c-4.5,0-8.1-3.4-8-7.7c0.1-4.3,3.7-7.7,8.1-7.7c4.2,0.1,7.6,3.5,7.6,7.8
	C-68.8,769-72.2,772.3-76.5,772.3z M-71.9,761.9c-0.4-0.5-0.6-1-0.8-1c-0.5,0-1.2,0.1-1.5,0.4c-0.9,1.1-1.6,2.2-2.3,3.4
	c-0.7,1.2-1.2,1.6-2.4,0.4c-0.3-0.4-1.4-0.1-2.1-0.2c0.6,1.1,1,2.2,1.7,3.1c0.5,0.5,2,1.1,2.1,0.9
	C-75.3,766.6-73.7,764.3-71.9,761.9z"/>
<path class="st0" d="M-68.8,786.8c0,4.2-3.8,7.9-7.9,7.8c-4-0.1-7.7-3.7-7.8-7.8c-0.1-4.1,3.6-7.8,7.9-7.8
	C-72.2,779-68.8,782.3-68.8,786.8z M-76.7,792.6c3.2,0,5.9-2.5,5.9-5.7c0.1-3.3-2.6-6.1-5.9-6.1c-3.2,0-6,2.8-5.9,6
	C-82.5,790-79.9,792.6-76.7,792.6z"/>
<path class="st0" d="M398,779.6c-0.2-0.6-0.6-1.2-0.5-1.4c0.5-0.9,1-1.9,1.8-2.7c5.1-5.1,10.2-10.1,15.3-15.2
	c0.8-0.8,1.4-1.7,2.6-0.4c1.1,1.2,0,1.7-0.6,2.4c-5,5-10,10-15.1,14.9C400.6,778.1,399.4,778.7,398,779.6z"/>
<path class="st0" d="M-53.3,765.8c-2.8,0-5.5,0.1-8.3-0.1c-0.7,0-1.3-0.8-2-1.2c0.7-0.3,1.3-0.8,2-0.8c5.6-0.1,11.3-0.1,16.9,0
	c0.7,0,1.3,0.5,2,0.8c-0.7,0.4-1.3,1.1-2,1.1C-47.6,765.9-50.5,765.8-53.3,765.8z"/>
<path class="st0" d="M-53.1,787.6c-2.6,0-5.1,0.1-7.7,0c-1,0-1.9-0.5-2.9-0.8c1-0.3,2-1,3-1c3-0.1,5.9,0,8.9,0c2.3,0,4.5-0.1,6.8,0
	c0.8,0,1.5,0.6,2.2,0.9c-0.7,0.3-1.4,0.9-2.1,0.9C-47.6,787.7-50.4,787.6-53.1,787.6z"/>
<path class="st0" d="M419.7,755.6c0.6,0.7,1.3,1.2,1.2,1.6c-0.1,0.6-0.8,1.1-1.3,1.6c-0.5-0.5-1.2-1-1.4-1.6
	C418.2,756.9,419.1,756.3,419.7,755.6z"/>
<path d="M250.2,759.2c6.9-0.1,13,3.9,15.6,10.2c2.6,6.4,0.9,13.9-4,18.4c-2.5,2.3-2.9,2.2-3.6-1c-0.3-1.4-0.5-2.9-1-4.3
	c-1.9-5-3.9-10-5.9-15c-0.5-1.2-1.3-1.2-1.9-0.1c-0.4,0.7-0.6,1.5-0.9,2.2c-1.2,2.8-1.8,5.7-3.8,8.4c-1.7,2.2-1.6,5.7-2.3,8.7
	c-0.2,0.9-0.7,1.7-1.1,2.6c-0.8-0.5-1.7-0.9-2.4-1.6c-5.1-4.6-6.8-11.7-4.3-18C237.1,763.3,243,759.3,250.2,759.2z"/>
<path d="M250.4,778.7c4.9,0.1,4-0.7,5.1,4.3c0.4,1.8,0.6,3.7,1.2,5.4c0.7,2.1-0.2,2.8-2.1,3.3c-3.3,0.8-6.4,0.8-9.6-0.3
	c-1.2-0.4-1.8-1-1.4-2.4c0.6-2,0.9-4,1.3-6C246.2,777.7,245.4,778.8,250.4,778.7z"/>
<path d="M94.4,790.7c-5.3,0-10.5,0-15.8,0c-4,0-5-1-5-4.8c0-5.7,0-11.4,0-17c0-3.7,1.1-4.6,4.8-4.7c1.3,0,2.6-0.1,3.9,0
	c2.2,0.2,3.9-0.4,5.1-2.2c1.2-1.7,2.9-2.3,4.9-2.1c1.5,0.1,3,0.1,4.5,0c1.9-0.1,3.5,0.4,4.6,2c1.3,1.9,3.1,2.4,5.4,2.3
	c8.7-0.1,8.7,0,8.7,8.5c0,4.2,0,8.4,0,12.6c0,4.6-0.9,5.4-5.6,5.4C104.7,790.7,99.6,790.7,94.4,790.7z M104.7,777.2
	c0-5.8-4.2-10-10.1-10c-5.8,0-10.2,4.2-10.1,9.9c0,6,4.2,10.1,10.3,10C100.4,787.1,104.7,782.8,104.7,777.2z M111.3,770.1
	c-1.5-0.8-2.4-1.7-3.2-1.6c-0.7,0-1.3,1.1-1.9,1.7c0.7,0.7,1.3,1.9,2,1.9C109,772.2,109.8,771.1,111.3,770.1z"/>
<path d="M-71.9,761.9c-1.7,2.4-3.4,4.8-5.2,7c-0.1,0.2-1.7-0.4-2.1-0.9c-0.8-0.9-1.2-2.1-1.7-3.1c0.7,0,1.7-0.2,2.1,0.2
	c1.1,1.2,1.7,0.8,2.4-0.4c0.7-1.2,1.4-2.3,2.3-3.4c0.3-0.3,1-0.4,1.5-0.4C-72.5,760.8-72.3,761.3-71.9,761.9z"/>
<path d="M-76.7,792.6c-3.2,0-5.8-2.5-5.9-5.7c-0.1-3.2,2.7-6,5.9-6c3.2,0,6,2.8,5.9,6.1C-70.8,790-73.4,792.6-76.7,792.6z"/>
<path class="st0" d="M104.7,777.2c0,5.6-4.2,9.9-9.9,9.9c-6.1,0-10.3-4-10.3-10c0-5.7,4.3-10,10.1-9.9
	C100.5,767.2,104.7,771.4,104.7,777.2z M94.6,785.3c4.6-0.1,8.3-3.9,8.2-8.4c-0.1-4.3-4-8-8.3-8c-4.4,0-8.4,4.1-8.2,8.4
	C86.4,781.6,90.3,785.3,94.6,785.3z"/>
<path class="st0" d="M111.3,770.1c-1.5,1-2.3,2.1-3,2c-0.7-0.1-1.4-1.2-2-1.9c0.6-0.6,1.2-1.6,1.9-1.7
	C108.9,768.4,109.8,769.3,111.3,770.1z"/>
<path d="M94.6,785.3c-4.3,0.1-8.2-3.6-8.3-8c-0.1-4.3,3.8-8.4,8.2-8.4c4.4,0,8.2,3.7,8.3,8C103,781.4,99.2,785.2,94.6,785.3z"/>
</svg>
