<?xml version="1.0" standalone="no"?>
<!DOCTYPE svg PUBLIC "-//W3C//DTD SVG 20010904//EN"
 "http://www.w3.org/TR/2001/REC-SVG-20010904/DTD/svg10.dtd">
<svg version="1.0" xmlns="http://www.w3.org/2000/svg"
 width="1129.000000pt" height="1280.000000pt" viewBox="0 0 1129.000000 1280.000000"
 preserveAspectRatio="xMidYMid meet">
<metadata>
Created by potrace 1.15, written by Peter Selinger 2001-2017
</metadata>
<g transform="translate(0.000000,1280.000000) scale(0.100000,-0.100000)"
fill="#000000" stroke="none">
<path d="M4779 12789 c-774 -52 -1486 -313 -2099 -767 -333 -247 -598 -526
-787 -829 -303 -489 -440 -1053 -411 -1692 25 -532 186 -1012 498 -1485 97
-147 281 -398 393 -536 l45 -55 -42 -24 c-323 -188 -713 -458 -956 -660 -838
-699 -1290 -1489 -1400 -2451 -29 -257 -23 -650 16 -955 122 -950 564 -1730
1329 -2342 294 -236 624 -428 980 -571 383 -153 764 -241 1235 -283 179 -16
632 -16 795 0 1095 106 1957 522 3056 1473 75 65 139 118 143 118 3 0 360
-388 793 -862 l787 -863 72 -3 73 -3 996 838 996 838 -3 76 -3 76 -759 868
c-537 614 -756 872 -750 881 5 7 348 318 762 690 l752 677 0 72 0 71 -866
1020 c-476 560 -872 1025 -879 1032 -10 12 -160 -120 -855 -750 -463 -419
-843 -763 -845 -763 -8 0 -1105 1229 -1103 1235 2 4 82 60 178 125 384 258
642 466 911 735 205 205 299 317 435 521 224 335 361 687 421 1079 21 142 24
548 4 715 -30 257 -74 471 -136 664 -342 1059 -1282 1803 -2556 2025 -381 66
-841 91 -1220 65z m487 -2415 c99 -20 201 -61 295 -116 302 -179 352 -482 133
-808 -129 -192 -448 -466 -718 -615 l-70 -39 -74 80 c-262 280 -377 539 -376
849 1 105 4 130 29 204 68 199 243 383 415 436 30 9 60 18 65 20 32 10 233 3
301 -11z m-176 -5799 c397 -434 732 -800 744 -813 l21 -23 -135 -133 c-351
-344 -710 -556 -1070 -632 -364 -76 -720 33 -964 297 -238 256 -341 546 -307
858 46 432 314 795 861 1170 57 39 110 70 116 69 7 -2 337 -358 734 -793z"/>
</g>
</svg>
