<?xml version="1.0" standalone="no"?>
<!DOCTYPE svg PUBLIC "-//W3C//DTD SVG 20010904//EN"
 "http://www.w3.org/TR/2001/REC-SVG-20010904/DTD/svg10.dtd">
<svg version="1.0" xmlns="http://www.w3.org/2000/svg"
 width="851.000000pt" height="1280.000000pt" viewBox="0 0 851.000000 1280.000000"
 preserveAspectRatio="xMidYMid meet">
<metadata>
Created by potrace 1.15, written by Peter Selinger 2001-2017
</metadata>
<g transform="translate(0.000000,1280.000000) scale(0.100000,-0.100000)"
fill="#000000" stroke="none">
<path d="M3591 12784 c-316 -43 -682 -179 -946 -351 -286 -188 -583 -497 -780
-813 -290 -468 -487 -1064 -559 -1700 -93 -810 0 -1577 275 -2268 27 -67 49
-126 49 -130 0 -4 -48 -47 -106 -97 -58 -49 -171 -156 -249 -237 -529 -544
-917 -1244 -1119 -2018 -151 -577 -193 -1202 -120 -1773 87 -681 333 -1296
715 -1787 93 -120 285 -319 409 -422 165 -138 328 -237 955 -579 646 -352 751
-405 909 -464 450 -166 997 -191 1449 -64 566 159 1143 594 1691 1277 54 67
99 122 100 122 1 0 263 -142 582 -315 369 -201 604 -323 647 -337 98 -29 262
-22 361 16 398 153 678 679 653 1225 -9 204 -61 403 -141 543 -23 40 -216 297
-429 571 -213 273 -387 502 -387 508 0 6 43 108 96 227 305 688 701 1735 755
1996 26 126 35 340 20 463 -36 291 -165 555 -335 683 -110 83 -1271 705 -1353
725 -1 0 18 81 42 180 52 207 96 459 122 695 25 227 25 857 0 1100 -102 984
-406 1677 -912 2079 -107 86 -166 119 -790 459 -691 375 -670 364 -814 412
-257 86 -522 110 -790 74z m649 -3182 c0 -210 -9 -316 -36 -452 -35 -167 -100
-331 -185 -460 l-43 -65 -8 35 c-5 19 -11 109 -15 200 -15 409 69 742 230 917
22 24 43 40 48 37 5 -3 9 -98 9 -212z m-359 -5146 c247 -318 448 -584 446
-590 -9 -23 -172 -245 -265 -361 -123 -153 -361 -392 -475 -477 -220 -163
-388 -230 -587 -232 l-104 -1 -52 99 c-160 305 -204 662 -128 1036 55 270 204
578 392 811 78 97 290 301 308 297 8 -2 217 -263 465 -582z"/>
</g>
</svg>
