<svg width="219.289" height="250.786" viewBox="0 0 219.289 250.786" xmlns="http://www.w3.org/2000/svg">
	<g id="svgGroup" stroke-linecap="round" fill-rule="evenodd" font-size="9pt" stroke="#000" stroke-width="0.25mm" fill="none" style="stroke:#000;stroke-width:0.25mm;fill:none">
		<path d="M 219.289 229.397 L 200.685 250.491 A 673.729 673.729 0 0 1 158.937 215.042 A 106.285 106.285 0 0 1 81.485 250.677 A 138.081 138.081 0 0 1 76.027 250.784 A 95.222 95.222 0 0 1 53.298 248.174 A 77.57 77.57 0 0 1 34.572 240.969 Q 18.312 232.18 9.23 217.532 A 60.245 60.245 0 0 1 0.002 185.012 A 64.788 64.788 0 0 1 24.824 133.779 Q 34.91 125.233 49.096 118.204 A 173.481 173.481 0 0 1 59.035 113.674 A 349.822 349.822 0 0 1 52.297 105.083 Q 45.98 96.744 42.138 90.397 A 97.175 97.175 0 0 1 41.603 89.504 A 82.955 82.955 0 0 1 34.484 74.582 A 59.607 59.607 0 0 1 30.91 54.641 Q 30.91 34.28 43.947 19.631 A 58.495 58.495 0 0 1 81.642 0.582 A 82.245 82.245 0 0 1 91.555 0.003 A 69.514 69.514 0 0 1 114.083 3.551 A 61.655 61.655 0 0 1 130.226 11.868 A 55.624 55.624 0 0 1 144.548 26.557 Q 152.102 38.172 152.338 53.227 A 62.18 62.18 0 0 1 152.346 54.202 A 56.444 56.444 0 0 1 136.104 94.044 A 76.39 76.39 0 0 1 132.57 97.561 A 92.324 92.324 0 0 1 121.598 106.206 Q 115.74 110.191 108.542 114.049 A 209.639 209.639 0 0 1 96.535 119.973 A 798.281 798.281 0 0 0 133.521 157.189 A 648.049 648.049 0 0 0 156.887 178.128 A 118.832 118.832 0 0 0 166.294 160.845 Q 170.375 151.749 173.841 140.788 A 269.654 269.654 0 0 0 178.859 122.61 L 203.029 132.278 A 334.229 334.229 0 0 1 195.232 155.795 Q 186.968 177.744 177.457 191.306 A 88.047 88.047 0 0 1 175.197 194.387 Q 193.068 210.061 219.289 229.397 Z M 73.83 130.374 A 118.652 118.652 0 0 0 59.235 137.857 Q 51.525 142.553 45.651 148.035 A 68.054 68.054 0 0 0 42.775 150.881 A 56.322 56.322 0 0 0 33.386 163.672 A 43.706 43.706 0 0 0 28.273 184.28 A 40.494 40.494 0 0 0 31.043 199.489 A 37.241 37.241 0 0 0 41.31 213.723 A 48.024 48.024 0 0 0 62.272 224.523 Q 69.65 226.342 78.339 226.459 A 89.186 89.186 0 0 0 79.543 226.467 A 82.248 82.248 0 0 0 123.488 214.309 Q 133.303 208.157 141.066 198.782 A 900.988 900.988 0 0 1 90.557 148.712 A 1033.906 1033.906 0 0 1 73.83 130.374 Z M 82.18 103.128 A 126.638 126.638 0 0 0 100.062 93.63 Q 108.768 87.978 114.481 81.605 A 39.473 39.473 0 0 0 125.392 54.641 A 29.287 29.287 0 0 0 117.189 33.987 A 33.152 33.152 0 0 0 92.975 22.887 A 43.672 43.672 0 0 0 91.262 22.854 A 33.852 33.852 0 0 0 69.875 30.032 A 29.413 29.413 0 0 0 58.028 51.463 A 38.832 38.832 0 0 0 57.863 55.081 A 45.189 45.189 0 0 0 60.623 70.288 Q 62.624 75.911 66.076 81.696 A 80.252 80.252 0 0 0 67.092 83.352 A 110.131 110.131 0 0 0 72.262 90.907 A 140.979 140.979 0 0 0 77.053 96.975 Q 81.547 102.527 82.105 103.069 A 0.221 0.221 0 0 0 82.18 103.128 Z" id="0" vector-effect="non-scaling-stroke"/>
	</g>
</svg>