<?xml version="1.0" standalone="no"?>
<!DOCTYPE svg PUBLIC "-//W3C//DTD SVG 20010904//EN"
 "http://www.w3.org/TR/2001/REC-SVG-20010904/DTD/svg10.dtd">
<svg version="1.0" xmlns="http://www.w3.org/2000/svg"
 width="795.000000pt" height="1280.000000pt" viewBox="0 0 795.000000 1280.000000"
 preserveAspectRatio="xMidYMid meet">
<metadata>
Created by potrace 1.15, written by Peter Selinger 2001-2017
</metadata>
<g transform="translate(0.000000,1280.000000) scale(0.100000,-0.100000)"
fill="#000000" stroke="none">
<path d="M0 6399 l0 -6402 163 6 c89 3 441 32 782 65 341 34 1048 102 1570
152 523 49 969 92 992 96 l43 5 0 2040 0 2039 1630 0 1630 0 0 1575 0 1575
-1630 0 -1630 0 0 1080 0 1080 2200 0 2200 0 0 123 -1 122 -407 1420 -407
1420 -3568 3 -3567 2 0 -6401z"/>
</g>
</svg>
