<?xml version="1.0" standalone="no"?>
<!DOCTYPE svg PUBLIC "-//W3C//DTD SVG 20010904//EN"
 "http://www.w3.org/TR/2001/REC-SVG-20010904/DTD/svg10.dtd">
<svg version="1.0" xmlns="http://www.w3.org/2000/svg"
 width="1280.000000pt" height="1280.000000pt" viewBox="0 0 1280.000000 1280.000000"
 preserveAspectRatio="xMidYMid meet">
<metadata>
Created by potrace 1.15, written by Peter Selinger 2001-2017
</metadata>
<g transform="translate(0.000000,1280.000000) scale(0.100000,-0.100000)"
fill="#000000" stroke="none">
<path d="M6605 10529 c-510 -47 -1038 -232 -1514 -530 -51 -33 -94 -59 -96
-59 -2 0 -4 48 -6 108 -4 95 -7 112 -31 153 -35 59 -84 102 -139 123 -24 8
-186 58 -360 111 -211 63 -333 95 -365 95 -38 0 -279 -76 -1019 -321 -533
-177 -986 -329 -1005 -339 -65 -33 -114 -102 -125 -176 -7 -43 53 -331 79
-382 27 -53 440 -432 506 -465 41 -20 65 -23 250 -28 113 -3 206 -7 207 -7 6
-7 15 -287 28 -882 8 -382 17 -792 20 -910 3 -118 14 -629 25 -1135 11 -506
24 -1093 29 -1305 12 -510 1 -616 -80 -740 -84 -131 -279 -207 -617 -240 -110
-11 -159 -29 -204 -77 -54 -57 -61 -90 -59 -293 1 -102 4 -212 7 -245 4 -41
59 -213 171 -535 91 -261 181 -522 200 -579 50 -145 113 -210 220 -226 21 -4
198 7 393 24 195 17 569 49 830 71 261 22 716 60 1010 85 294 25 638 54 763
65 256 22 289 31 349 98 63 70 70 114 66 400 -3 199 -6 254 -19 282 -21 46
-749 1003 -804 1057 -51 50 -105 67 -196 61 l-67 -5 -6 211 c-3 116 -12 1048
-21 2071 l-16 1860 48 43 c807 723 1461 1053 2242 1132 131 14 121 19 170 -80
38 -75 69 -168 91 -275 43 -205 44 -251 26 -2321 -10 -1167 -21 -1987 -27
-2025 -12 -82 -36 -163 -60 -211 -79 -154 -275 -245 -604 -278 -143 -15 -193
-41 -238 -125 -21 -38 -22 -53 -22 -285 0 -214 2 -249 18 -280 19 -39 885
-1045 944 -1098 20 -18 59 -39 87 -47 47 -14 129 -8 1525 110 812 69 1490 130
1506 135 45 15 103 66 127 113 20 38 23 65 31 294 9 230 8 257 -8 298 -9 25
-28 59 -41 75 -14 16 -223 178 -465 362 l-440 333 6 155 c3 85 12 445 20 800
20 855 52 2203 66 2777 13 517 5 712 -37 982 -145 930 -676 1562 -1483 1766
-98 24 -1079 214 -1251 241 -115 19 -494 26 -635 13z"/>
</g>
</svg>
