<?xml version="1.0" standalone="no"?>
<!DOCTYPE svg PUBLIC "-//W3C//DTD SVG 20010904//EN"
 "http://www.w3.org/TR/2001/REC-SVG-20010904/DTD/svg10.dtd">
<svg version="1.0" xmlns="http://www.w3.org/2000/svg"
 width="1280.000000pt" height="1280.000000pt" viewBox="0 0 1280.000000 1280.000000"
 preserveAspectRatio="xMidYMid meet">
<metadata>
Created by potrace 1.15, written by Peter Selinger 2001-2017
</metadata>
<g transform="translate(0.000000,1280.000000) scale(0.100000,-0.100000)"
fill="#000000" stroke="none">
<path d="M5705 10779 c-288 -21 -612 -78 -848 -149 -422 -127 -809 -329 -1142
-596 -147 -118 -377 -350 -501 -504 -501 -627 -791 -1360 -890 -2250 -22 -196
-30 -755 -15 -976 39 -553 153 -1058 338 -1494 52 -122 590 -1189 671 -1330
487 -849 1203 -1414 2087 -1645 648 -170 1446 -164 2185 16 1043 254 1869 870
2443 1821 371 614 591 1299 672 2088 115 1137 -70 2201 -527 3025 -496 893
-1260 1489 -2209 1720 -148 36 -1184 222 -1389 249 -258 35 -611 45 -875 25z
m1366 -1141 c107 -75 298 -266 394 -393 320 -426 526 -985 610 -1660 54 -437
56 -922 4 -1379 -64 -571 -217 -1075 -454 -1492 -365 -643 -815 -983 -1445
-1089 -148 -25 -459 -31 -603 -11 -296 42 -517 130 -752 302 -69 49 -71 53
-108 145 -165 419 -261 866 -308 1439 -15 187 -15 823 0 1010 86 1053 373
1866 862 2436 418 487 950 729 1635 742 l91 2 74 -52z"/>
</g>
</svg>
