<?xml version="1.0" standalone="no"?>
<!DOCTYPE svg PUBLIC "-//W3C//DTD SVG 20010904//EN"
 "http://www.w3.org/TR/2001/REC-SVG-20010904/DTD/svg10.dtd">
<svg version="1.0" xmlns="http://www.w3.org/2000/svg"
 width="1280.000000pt" height="1280.000000pt" viewBox="0 0 1280.000000 1280.000000"
 preserveAspectRatio="xMidYMid meet">
<metadata>
Created by potrace 1.15, written by Peter Selinger 2001-2017
</metadata>
<g transform="translate(0.000000,1280.000000) scale(0.100000,-0.100000)"
fill="#000000" stroke="none">
<path d="M5406 11720 c-94 -47 -123 -103 -131 -250 -34 -604 -100 -1004 -226
-1365 -50 -146 -140 -337 -204 -436 -219 -339 -539 -555 -925 -623 -206 -37
-240 -53 -287 -133 l-28 -48 2 -215 c3 -201 4 -218 26 -260 19 -37 76 -88 337
-298 185 -148 333 -259 358 -268 36 -14 72 -16 231 -12 l189 5 6 -536 c4 -295
13 -1170 21 -1946 18 -1729 21 -1888 40 -2044 30 -239 97 -473 184 -636 46
-88 719 -1147 809 -1274 166 -235 425 -409 722 -487 340 -89 790 -65 1183 63
563 184 1064 614 1465 1258 96 155 142 251 142 299 0 50 -15 100 -43 139 -10
15 -257 245 -548 511 -463 424 -540 490 -625 540 -126 73 -165 83 -237 62 -51
-15 -66 -27 -161 -129 -260 -276 -554 -493 -791 -582 -37 -14 -69 -24 -71 -22
-7 6 12 4846 18 4853 7 6 125 11 1328 54 l575 20 55 28 c67 33 114 92 129 160
6 28 11 175 12 329 1 238 -2 285 -16 319 -18 43 -67 99 -105 119 -14 7 -266
90 -560 185 l-535 173 -325 -7 c-179 -3 -379 -9 -444 -12 l-119 -7 6 1110 c8
1238 11 1176 -60 1254 -42 47 -95 76 -150 84 -89 13 -805 45 -998 45 -188 -1
-214 -3 -249 -20z"/>
</g>
</svg>
