<svg width="445" height="142.401" viewBox="0 0 445 142.401" xmlns="http://www.w3.org/2000/svg">
	<g id="svgGroup" stroke-linecap="round" fill-rule="evenodd" font-size="9pt" stroke="#000" stroke-width="0.25mm" fill="none" style="stroke:#000;stroke-width:0.25mm;fill:none">
		<path d="M 25.6 139.4 L 0 139.4 L 0 0 L 72.8 0 L 72.8 22 L 25.6 22 L 25.6 58.6 L 66.8 58.6 L 66.8 81 L 25.6 81 L 25.6 139.4 Z" id="0" vector-effect="non-scaling-stroke"/>
		<path d="M 114.8 139.4 L 89.8 139.4 L 89.8 39.8 L 112.4 39.8 L 113.6 57.4 Q 114.975 54.048 117.642 50.328 A 53.091 53.091 0 0 1 118.55 49.1 A 23.796 23.796 0 0 1 123.368 44.407 A 32.175 32.175 0 0 1 127.85 41.65 A 25.152 25.152 0 0 1 133.658 39.578 Q 137.876 38.6 143.2 38.6 A 35.772 35.772 0 0 1 145.604 38.677 Q 146.789 38.757 147.828 38.92 A 20.134 20.134 0 0 1 148.3 39 A 20.068 20.068 0 0 1 151.554 39.869 A 17.884 17.884 0 0 1 152.4 40.2 L 146.8 66.4 Q 144.264 63.864 139.593 63.338 A 23.188 23.188 0 0 0 137 63.2 A 30.856 30.856 0 0 0 131.671 63.634 Q 127.482 64.369 124.4 66.35 A 28.241 28.241 0 0 0 120.84 69.033 Q 118.975 70.7 117.705 72.541 A 16.556 16.556 0 0 0 117.15 73.4 Q 115.342 76.4 114.925 78.335 A 5.085 5.085 0 0 0 114.8 79.4 L 114.8 139.4 Z" id="1" vector-effect="non-scaling-stroke"/>
		<path d="M 190.857 139.769 A 56.238 56.238 0 0 0 204.8 141.4 A 57.947 57.947 0 0 0 215.824 140.402 A 38.792 38.792 0 0 0 238.85 127.25 Q 250.8 113.1 250.8 89.4 A 92.539 92.539 0 0 0 250.721 85.542 Q 250.378 77.326 248.55 70.338 A 48.813 48.813 0 0 0 239.25 51.55 A 36.878 36.878 0 0 0 219.258 38.997 A 54.972 54.972 0 0 0 205.6 37.4 A 59.84 59.84 0 0 0 194.59 38.367 A 40.664 40.664 0 0 0 171.2 51.1 A 41.998 41.998 0 0 0 165.988 58.26 Q 158.8 70.671 158.8 89.4 Q 158.8 100.838 161.437 109.946 A 45.963 45.963 0 0 0 170.8 127.6 A 38.527 38.527 0 0 0 190.857 139.769 Z M 205.2 121.4 A 15.727 15.727 0 0 0 220.231 111.966 Q 223.735 104.955 224.146 92.733 A 99.397 99.397 0 0 0 224.2 89.4 Q 224.2 68.544 216.229 61.196 A 15.638 15.638 0 0 0 205.2 57.2 A 18.888 18.888 0 0 0 198.376 58.383 Q 193.873 60.113 190.797 64.373 A 21.173 21.173 0 0 0 190.6 64.65 A 22.475 22.475 0 0 0 187.802 70.433 Q 185.89 76.17 185.5 84.79 A 102.048 102.048 0 0 0 185.4 89.4 A 90.02 90.02 0 0 0 185.767 97.846 Q 186.781 108.566 190.6 114 A 16.5 16.5 0 0 0 202.502 121.237 A 21.718 21.718 0 0 0 205.2 121.4 Z" id="2" vector-effect="non-scaling-stroke"/>
		<path d="M 299.6 139.4 L 274 139.4 L 274 39.8 L 297.2 39.8 L 297.7 52.9 A 34.923 34.923 0 0 1 303.604 46.052 A 45.543 45.543 0 0 1 308.6 42.15 A 25.684 25.684 0 0 1 316.557 38.625 Q 321.211 37.4 327 37.4 Q 339.424 37.4 346.637 43.814 A 23.22 23.22 0 0 1 349.6 47 A 32.59 32.59 0 0 1 354.912 57.626 Q 356.282 62.182 356.753 67.638 A 69.343 69.343 0 0 1 357 73.6 L 357 139.4 L 331.4 139.4 L 331.4 75.8 Q 331.4 69.203 329.189 64.596 A 17.323 17.323 0 0 0 327.9 62.35 A 11.393 11.393 0 0 0 319.77 57.381 A 17.504 17.504 0 0 0 317.2 57.2 A 17.051 17.051 0 0 0 305.149 62.111 A 22.141 22.141 0 0 0 304.9 62.35 A 17.253 17.253 0 0 0 299.743 73.161 A 23.76 23.76 0 0 0 299.6 75.8 L 299.6 139.4 Z" id="3" vector-effect="non-scaling-stroke"/>
		<path d="M 389.8 107 L 389.8 60.8 L 376.8 60.8 L 376.8 39.8 L 390.8 39.8 L 392.2 18.8 L 414 9.4 L 414 39.8 L 438.6 39.8 L 438.6 60.8 L 414 60.8 L 414 106.4 Q 414 113.193 415.494 116.725 A 8.566 8.566 0 0 0 416.45 118.45 Q 418.9 121.8 423.2 121.8 A 19.132 19.132 0 0 0 428.29 121.077 A 26.48 26.48 0 0 0 432.5 119.5 Q 437.4 117.2 440.2 114.8 L 445 135 Q 442.46 136.803 438.678 138.236 A 45.288 45.288 0 0 1 436.95 138.85 Q 432 140.5 426.95 141.45 Q 423.557 142.088 420.954 142.298 A 29.492 29.492 0 0 1 418.6 142.4 A 50.75 50.75 0 0 1 410.834 141.85 Q 406.768 141.218 403.605 139.861 A 17.527 17.527 0 0 1 395.75 133.6 A 28.843 28.843 0 0 1 392.242 126.113 Q 389.957 118.9 389.81 108.455 A 103.207 103.207 0 0 1 389.8 107 Z" id="4" vector-effect="non-scaling-stroke"/>
	</g>
</svg>